<svg id="svg" version="1.1" xmlns="http://www.w3.org/2000/svg" xmlns:xlink="http://www.w3.org/1999/xlink" width="400" height="409.8765432098765" viewBox="0, 0, 400,409.8765432098765"><g id="svgg"><path id="path0" d="M179.480 14.445 C 132.662 18.042,89.916 37.464,58.681 69.331 C 45.139 83.146,35.385 96.445,34.425 102.400 C 33.843 106.009,33.842 262.781,34.424 266.400 C 35.715 274.433,39.588 277.712,48.043 277.931 C 56.878 278.160,60.342 276.164,62.905 269.371 L 63.800 267.000 64.019 230.800 C 64.264 190.528,64.129 192.472,67.067 186.665 C 78.025 164.996,110.672 165.247,117.522 187.053 C 120.162 195.458,120.095 194.371,120.359 233.200 C 120.632 273.309,120.358 270.202,123.974 274.125 C 128.721 279.275,141.092 279.482,146.225 274.497 C 150.258 270.580,150.378 269.337,150.381 231.200 C 150.385 183.991,149.926 180.963,140.270 164.563 C 138.258 161.145,135.765 158.502,131.487 155.253 C 113.316 141.451,91.558 143.681,72.501 161.299 C 68.097 165.370,66.373 165.772,64.896 163.072 C 63.859 161.176,63.609 103.958,64.623 100.445 C 66.180 95.049,71.303 89.040,84.180 77.504 C 100.505 62.880,128.837 47.923,150.200 42.650 C 178.190 35.742,201.222 35.397,230.737 41.442 C 249.179 45.219,268.454 53.724,287.375 66.434 C 291.618 69.284,296.689 73.077,298.645 74.864 C 300.600 76.651,303.753 79.441,305.651 81.064 C 312.166 86.638,320.020 95.340,327.074 104.800 C 334.130 114.263,336.141 115.828,341.172 115.769 C 348.739 115.681,354.436 107.548,351.722 100.708 C 350.131 96.699,342.888 86.403,337.570 80.591 C 336.157 79.046,333.792 76.346,332.316 74.591 C 329.670 71.445,320.863 62.892,315.400 58.163 C 309.410 52.977,295.333 43.079,289.386 39.871 C 286.754 38.451,283.577 36.722,282.327 36.029 C 254.195 20.436,213.273 11.848,179.480 14.445 M323.672 151.218 C 312.247 152.307,303.491 157.121,294.078 167.489 C 288.126 174.045,286.588 173.982,281.965 166.987 C 268.271 146.265,236.216 145.624,217.928 165.706 C 214.415 169.564,213.054 170.354,211.330 169.536 C 210.173 168.987,210.111 168.845,208.169 162.291 C 205.273 152.517,191.357 151.317,186.240 160.400 L 185.000 162.600 185.128 214.400 C 185.266 270.049,185.248 269.594,187.361 272.733 C 192.474 280.328,206.327 279.953,211.047 272.091 C 213.183 268.533,213.221 267.874,213.123 236.170 C 212.991 193.024,213.469 190.132,222.187 181.369 C 235.012 168.477,255.025 172.388,261.170 188.986 C 263.652 195.692,263.593 194.666,263.611 231.000 C 263.629 267.194,263.698 268.468,265.852 272.425 C 269.769 279.621,283.725 280.022,288.947 273.089 C 291.806 269.293,292.067 266.042,291.762 238.000 C 291.311 196.532,292.085 190.501,298.877 182.499 C 304.742 175.589,310.838 173.060,319.897 173.780 C 332.542 174.783,340.381 184.454,341.994 201.038 C 342.500 206.242,342.510 269.117,342.006 273.800 C 341.419 279.244,333.602 293.604,326.220 302.800 C 325.071 304.230,322.990 306.930,321.594 308.800 C 310.273 323.963,285.174 343.616,266.003 352.328 C 210.898 377.372,151.673 373.817,101.800 342.473 C 94.960 338.174,83.532 328.737,74.600 320.012 C 68.570 314.123,67.187 313.363,63.087 313.692 C 55.329 314.315,50.066 322.187,52.947 328.859 C 54.918 333.425,66.853 345.531,76.800 353.055 C 79.110 354.802,82.112 357.124,83.470 358.216 C 84.829 359.307,87.529 361.174,89.470 362.363 C 91.412 363.553,94.378 365.410,96.061 366.489 C 117.020 379.918,151.692 390.499,179.600 391.981 C 191.454 392.610,212.771 392.007,214.407 390.996 C 214.581 390.888,217.126 390.522,220.062 390.181 C 225.928 389.501,234.078 387.824,240.713 385.931 C 243.071 385.258,246.890 384.208,249.200 383.598 C 254.024 382.323,265.064 378.287,268.600 376.505 C 269.920 375.840,272.800 374.534,275.000 373.602 C 282.385 370.475,301.949 358.860,306.970 354.621 C 308.307 353.493,310.930 351.414,312.800 350.001 C 324.738 340.982,340.536 323.886,349.945 309.803 C 358.682 296.728,367.616 279.047,369.805 270.501 C 370.772 266.730,370.492 196.021,369.489 190.600 C 366.078 172.155,357.918 160.118,344.533 153.786 C 339.997 151.640,330.942 150.525,323.672 151.218 " stroke="none" fill="#f6f9f1" fill-rule="evenodd"></path><path id="path1" d="M0.000 204.800 L 0.000 409.600 200.000 409.600 L 400.000 409.600 400.000 204.800 L 400.000 0.000 200.000 0.000 L 0.000 0.000 0.000 204.800 M205.600 11.009 C 244.164 13.474,281.818 26.974,308.200 47.793 C 310.180 49.356,313.510 51.912,315.600 53.473 C 324.676 60.255,340.321 76.522,346.812 85.926 C 348.131 87.837,350.304 90.930,351.640 92.800 C 359.514 103.815,357.348 114.622,346.417 118.865 C 338.116 122.087,332.540 119.215,323.839 107.237 C 287.691 57.470,226.713 33.002,164.837 43.435 C 144.905 46.795,124.225 54.633,108.200 64.900 C 105.780 66.450,102.810 68.351,101.600 69.123 C 87.741 77.968,70.271 95.076,68.386 101.648 C 67.971 103.096,67.796 156.291,68.203 157.300 C 68.614 158.319,69.669 158.161,71.440 156.813 C 72.298 156.161,74.500 154.472,76.333 153.061 C 91.514 141.379,109.823 139.361,126.800 147.498 L 132.200 150.087 137.200 155.161 C 147.562 165.677,152.303 177.006,153.618 194.400 C 153.904 198.179,154.010 211.979,153.922 234.000 L 153.788 267.800 152.651 271.180 C 147.972 285.096,124.636 286.052,118.334 272.585 C 116.555 268.782,116.416 265.947,116.397 233.000 C 116.376 196.933,116.014 192.416,112.578 185.336 C 103.940 167.537,75.872 171.973,69.148 192.200 L 68.217 195.000 67.985 231.600 C 67.739 270.458,67.803 269.239,65.786 273.225 C 62.805 279.117,57.640 281.635,48.400 281.700 C 38.636 281.769,34.054 278.757,31.176 270.378 L 30.290 267.800 30.345 185.184 C 30.405 94.229,30.227 100.606,32.859 95.417 C 37.115 87.025,53.666 67.862,66.000 57.044 C 79.423 45.271,99.429 32.665,114.200 26.672 C 116.620 25.691,120.090 24.243,121.910 23.454 C 143.940 13.919,176.162 9.127,205.600 11.009 M258.916 147.797 C 269.447 149.633,277.776 154.649,283.817 162.793 C 286.221 166.035,287.381 167.200,288.204 167.200 C 288.345 167.200,290.761 164.975,293.573 162.256 C 301.364 154.723,307.557 150.878,314.898 149.016 C 341.156 142.355,361.997 153.570,370.473 178.921 C 374.150 189.919,374.501 195.398,374.320 239.000 L 374.191 270.200 373.262 273.000 C 371.989 276.835,366.688 288.655,364.383 292.800 C 363.343 294.670,361.187 298.540,359.593 301.400 C 356.683 306.620,350.652 315.747,345.477 322.762 C 338.946 331.615,324.090 346.480,314.855 353.400 C 312.506 355.160,309.598 357.392,308.392 358.359 C 303.190 362.534,287.421 371.921,277.800 376.570 C 268.343 381.140,257.813 385.196,250.200 387.200 C 248.440 387.663,245.380 388.557,243.400 389.185 C 218.541 397.078,182.324 398.119,150.800 391.847 C 127.112 387.134,95.495 373.017,79.714 360.106 C 78.786 359.347,76.578 357.692,74.806 356.428 C 65.936 350.100,52.735 336.853,49.864 331.400 C 44.779 321.742,52.479 309.800,63.791 309.800 C 69.311 309.800,71.628 311.351,83.400 322.927 C 91.101 330.499,101.829 338.164,115.875 346.128 C 124.098 350.790,125.465 351.447,130.753 353.268 C 133.309 354.148,136.964 355.472,138.876 356.210 C 156.810 363.127,188.137 366.760,208.400 364.271 C 261.619 357.734,300.982 334.105,329.461 291.600 C 338.747 277.740,338.794 277.497,338.773 242.600 C 338.749 201.363,338.344 195.888,334.771 188.497 C 328.224 174.953,310.407 173.582,301.128 185.908 C 295.638 193.201,295.622 193.341,295.606 235.800 C 295.594 266.305,295.493 268.517,293.932 272.691 C 289.588 284.299,267.793 284.956,262.027 273.652 C 259.865 269.415,259.885 269.767,259.610 231.400 C 259.376 198.832,259.293 195.596,258.639 193.400 C 253.121 174.870,232.179 171.930,221.437 188.178 C 217.279 194.469,217.069 196.735,216.969 236.400 C 216.895 265.491,216.816 269.192,216.230 270.787 C 210.308 286.915,183.929 285.277,181.577 268.635 C 181.109 265.323,181.059 162.919,181.525 161.389 C 185.774 147.426,204.938 146.349,211.648 159.695 C 213.638 163.654,213.988 163.669,218.200 159.971 C 229.622 149.945,244.950 145.361,258.916 147.797 " stroke="none" fill="#739a3c" fill-rule="evenodd"></path><path id="path2" d="M180.000 10.826 C 160.158 12.047,136.264 17.241,121.910 23.454 C 120.090 24.243,116.620 25.691,114.200 26.672 C 99.429 32.665,79.423 45.271,66.000 57.044 C 53.666 67.862,37.115 87.025,32.859 95.417 C 30.227 100.606,30.405 94.229,30.345 185.184 L 30.290 267.800 31.176 270.378 C 34.054 278.757,38.636 281.769,48.400 281.700 C 57.640 281.635,62.805 279.117,65.786 273.225 C 67.803 269.239,67.739 270.458,67.985 231.600 L 68.217 195.000 69.148 192.200 C 74.977 174.665,97.491 168.059,109.013 180.503 C 115.830 187.866,116.373 191.725,116.397 233.000 C 116.416 265.947,116.555 268.782,118.334 272.585 C 124.636 286.052,147.972 285.096,152.651 271.180 L 153.788 267.800 153.922 234.000 C 154.010 211.979,153.904 198.179,153.618 194.400 C 152.303 177.006,147.562 165.677,137.200 155.161 L 132.200 150.087 126.800 147.498 C 109.823 139.361,91.514 141.379,76.333 153.061 C 74.500 154.472,72.298 156.161,71.440 156.813 C 69.669 158.161,68.614 158.319,68.203 157.300 C 67.796 156.291,67.971 103.096,68.386 101.648 C 70.271 95.076,87.741 77.968,101.600 69.123 C 102.810 68.351,105.780 66.450,108.200 64.900 C 177.555 20.465,274.661 39.530,323.839 107.237 C 332.540 119.215,338.116 122.087,346.417 118.865 C 357.348 114.622,359.514 103.815,351.640 92.800 C 350.304 90.930,348.131 87.837,346.812 85.926 C 340.321 76.522,324.676 60.255,315.600 53.473 C 313.510 51.912,310.180 49.356,308.200 47.793 C 275.763 22.196,226.428 7.970,180.000 10.826 M203.400 12.590 C 228.428 13.967,249.485 18.838,270.342 28.077 C 299.667 41.067,319.660 56.294,342.117 82.742 C 345.117 86.275,351.972 96.328,353.326 99.180 C 359.125 111.399,343.578 123.606,332.961 115.169 C 331.525 114.028,330.167 112.346,321.800 101.341 C 316.289 94.093,303.831 81.644,294.200 73.759 C 268.657 52.851,232.405 40.154,195.870 39.321 C 149.330 38.260,101.194 58.853,71.995 92.316 C 65.774 99.445,66.000 97.994,66.002 130.920 C 66.005 166.013,65.595 164.522,73.400 157.805 C 104.219 131.281,143.108 145.391,150.901 185.923 C 151.795 190.575,151.800 190.812,151.800 229.800 L 151.800 269.000 150.887 271.259 C 148.543 277.056,144.197 279.677,136.505 279.933 C 127.242 280.242,122.914 277.998,119.655 271.200 L 118.600 269.000 118.351 233.200 C 118.076 193.716,118.188 195.461,115.437 187.550 C 108.525 167.675,79.096 167.368,69.254 187.069 C 66.095 193.390,66.265 191.044,66.019 231.800 C 65.777 271.737,65.910 269.624,63.397 273.605 C 58.538 281.302,42.682 282.569,36.408 275.762 C 31.674 270.626,31.959 276.762,32.088 183.000 L 32.200 101.400 33.056 99.165 C 36.995 88.881,58.603 64.620,75.200 51.848 C 106.110 28.060,143.580 14.308,182.600 12.430 C 192.112 11.972,192.170 11.972,203.400 12.590 M243.800 147.644 C 235.537 148.835,225.234 153.797,218.200 159.971 C 213.988 163.669,213.638 163.654,211.648 159.695 C 204.938 146.349,185.774 147.426,181.525 161.389 C 181.059 162.919,181.109 265.323,181.577 268.635 C 183.929 285.277,210.308 286.915,216.230 270.787 C 216.816 269.192,216.895 265.491,216.969 236.400 C 217.069 196.735,217.279 194.469,221.437 188.178 C 232.179 171.930,253.121 174.870,258.639 193.400 C 259.293 195.596,259.376 198.832,259.610 231.400 C 259.885 269.767,259.865 269.415,262.027 273.652 C 267.793 284.956,289.588 284.299,293.932 272.691 C 295.493 268.517,295.594 266.305,295.606 235.800 C 295.622 193.341,295.638 193.201,301.128 185.908 C 308.512 176.099,322.808 174.600,330.826 182.794 C 338.043 190.170,338.746 195.458,338.773 242.600 C 338.792 275.185,338.758 275.480,333.958 284.123 C 306.279 333.955,251.145 365.127,191.000 364.949 C 173.385 364.896,152.179 361.341,138.876 356.210 C 136.964 355.472,133.309 354.148,130.753 353.268 C 125.465 351.447,124.098 350.790,115.875 346.128 C 101.829 338.164,91.101 330.499,83.400 322.927 C 71.628 311.351,69.311 309.800,63.791 309.800 C 52.479 309.800,44.779 321.742,49.864 331.400 C 52.735 336.853,65.936 350.100,74.806 356.428 C 76.578 357.692,78.786 359.347,79.714 360.106 C 95.495 373.017,127.112 387.134,150.800 391.847 C 182.324 398.119,218.541 397.078,243.400 389.185 C 245.380 388.557,248.440 387.663,250.200 387.200 C 257.813 385.196,268.343 381.140,277.800 376.570 C 287.421 371.921,303.190 362.534,308.392 358.359 C 309.598 357.392,312.506 355.160,314.855 353.400 C 324.090 346.480,338.946 331.615,345.477 322.762 C 350.652 315.747,356.683 306.620,359.593 301.400 C 361.187 298.540,363.343 294.670,364.383 292.800 C 366.688 288.655,371.989 276.835,373.262 273.000 L 374.191 270.200 374.320 239.000 C 374.501 195.398,374.150 189.919,370.473 178.921 C 361.997 153.570,341.156 142.355,314.898 149.016 C 307.557 150.878,301.364 154.723,293.573 162.256 C 290.761 164.975,288.345 167.200,288.204 167.200 C 287.381 167.200,286.221 166.035,283.817 162.793 C 275.040 150.960,260.079 145.296,243.800 147.644 M334.281 149.209 C 353.995 151.681,367.000 165.851,371.283 189.529 C 372.197 194.583,372.200 194.729,372.200 232.400 L 372.200 270.200 371.288 272.921 C 362.081 300.389,337.316 334.136,312.800 352.622 C 311.370 353.701,309.120 355.451,307.800 356.512 C 296.532 365.569,271.241 378.660,254.800 383.946 C 245.314 386.995,230.685 390.710,224.800 391.564 C 179.841 398.086,143.434 392.730,106.245 374.123 C 86.007 363.998,63.183 346.506,53.285 333.535 C 46.270 324.341,51.821 312.185,63.274 311.659 C 68.472 311.420,69.034 311.790,81.600 323.732 C 140.357 379.569,236.088 381.345,300.200 327.787 C 318.394 312.588,338.446 285.077,339.986 273.200 C 340.493 269.293,340.502 207.062,339.997 201.867 C 338.141 182.786,328.000 173.157,312.755 176.002 C 305.337 177.387,297.161 185.601,295.004 193.837 C 293.882 198.118,293.542 209.379,293.664 238.200 C 293.795 268.966,293.766 269.426,291.447 273.293 C 286.175 282.085,269.182 282.338,264.120 273.699 C 261.774 269.697,261.848 270.917,261.607 232.000 L 261.385 196.200 260.268 192.609 C 254.723 174.784,236.467 169.935,223.532 182.851 C 215.305 191.067,214.501 196.617,215.020 241.600 C 215.315 267.181,215.228 268.793,213.355 272.488 C 208.000 283.056,189.487 282.650,184.478 271.854 C 183.245 269.199,183.258 269.754,183.126 214.800 L 183.000 162.200 184.108 159.943 C 189.832 148.289,206.034 149.785,210.570 162.386 C 212.441 167.583,212.798 167.598,217.935 162.682 C 235.612 145.766,263.231 144.433,278.860 159.742 C 280.102 160.959,282.132 163.477,283.369 165.337 C 287.338 171.302,287.886 171.303,293.119 165.356 C 303.749 153.278,319.005 147.293,334.281 149.209 " stroke="none" fill="#a6b889" fill-rule="evenodd"></path><path id="path3" d="M180.000 12.823 C 175.384 13.188,160.455 15.230,152.055 16.644 C 145.720 17.710,142.437 18.550,135.200 20.954 C 132.890 21.721,129.560 22.793,127.800 23.337 C 126.040 23.881,123.520 24.979,122.200 25.777 C 120.880 26.575,118.990 27.473,118.000 27.771 C 114.439 28.845,110.663 30.425,108.452 31.766 C 107.214 32.517,102.780 34.873,98.600 37.000 C 94.420 39.128,89.560 41.905,87.800 43.171 C 86.040 44.437,82.890 46.614,80.800 48.010 C 75.326 51.664,72.212 54.140,68.768 57.575 C 67.100 59.239,63.530 62.654,60.834 65.165 C 58.138 67.676,54.463 71.444,52.666 73.538 C 50.870 75.632,48.349 78.347,47.065 79.573 C 45.781 80.798,44.084 82.700,43.294 83.800 C 42.504 84.900,40.741 87.330,39.375 89.200 C 36.474 93.172,33.468 98.639,32.776 101.200 C 32.263 103.098,32.163 263.840,32.673 266.800 C 33.283 270.346,37.229 276.811,39.724 278.353 C 45.798 282.107,58.797 279.416,62.456 273.648 C 65.069 269.528,64.948 271.363,65.208 232.200 C 65.474 192.184,65.369 193.578,68.620 186.989 C 75.010 174.042,94.808 167.953,106.240 175.419 C 117.706 182.907,118.384 186.256,118.404 235.447 C 118.417 269.182,118.427 269.358,120.547 272.717 C 126.210 281.686,143.219 282.005,149.107 273.252 C 151.884 269.123,151.807 270.424,151.735 228.719 L 151.671 191.239 150.643 187.119 C 150.077 184.854,149.330 181.494,148.983 179.653 C 148.219 175.606,147.346 173.309,145.294 169.947 C 144.440 168.546,143.065 166.112,142.241 164.538 C 139.390 159.099,132.162 152.614,125.337 149.373 C 107.194 140.758,92.402 143.343,72.683 158.574 C 65.129 164.409,65.398 165.457,65.408 130.200 L 65.415 102.600 66.466 100.088 C 68.236 95.856,70.070 93.142,73.143 90.209 C 74.761 88.664,77.554 85.960,79.349 84.200 C 87.370 76.334,95.000 70.359,102.215 66.292 C 103.984 65.296,107.134 63.408,109.215 62.097 C 119.613 55.551,135.246 48.253,142.055 46.767 C 144.081 46.325,146.742 45.606,147.969 45.170 C 152.189 43.669,153.811 43.235,158.200 42.436 C 160.620 41.995,164.548 41.271,166.928 40.826 C 182.736 37.874,204.439 38.244,225.200 41.819 C 225.750 41.914,227.100 42.102,228.200 42.237 C 231.445 42.636,236.296 43.936,241.000 45.668 C 243.420 46.559,247.172 47.798,249.338 48.421 C 253.968 49.754,265.927 55.286,270.790 58.344 C 272.666 59.523,275.678 61.193,277.485 62.056 C 279.291 62.918,281.582 64.243,282.574 65.001 C 283.567 65.759,286.858 68.046,289.889 70.083 C 293.251 72.344,296.570 74.973,298.400 76.826 C 300.050 78.496,302.205 80.479,303.189 81.232 C 305.701 83.153,314.045 91.545,317.477 95.600 C 319.060 97.470,320.998 99.720,321.785 100.600 C 322.572 101.480,324.031 103.525,325.026 105.144 C 330.591 114.195,334.575 116.929,342.200 116.929 C 347.249 116.929,350.575 114.736,352.833 109.918 C 355.759 103.674,354.234 98.295,347.186 90.000 C 346.158 88.790,344.469 86.471,343.433 84.847 C 337.915 76.202,314.466 54.048,304.000 47.591 C 302.790 46.845,301.057 45.597,300.148 44.817 C 299.240 44.038,296.540 42.269,294.148 40.887 C 291.757 39.504,288.810 37.665,287.600 36.800 C 286.390 35.934,283.543 34.476,281.274 33.559 C 279.005 32.642,274.055 30.362,270.274 28.494 C 262.575 24.689,258.078 23.020,249.600 20.823 C 246.410 19.996,242.450 18.919,240.800 18.430 C 233.882 16.380,220.174 14.226,208.800 13.402 C 207.150 13.282,204.752 13.088,203.472 12.969 C 199.506 12.603,184.000 12.506,180.000 12.823 M205.200 14.591 C 233.269 16.461,260.858 24.130,282.327 36.029 C 283.577 36.722,286.754 38.451,289.386 39.871 C 295.333 43.079,309.410 52.977,315.400 58.163 C 320.863 62.892,329.670 71.445,332.316 74.591 C 333.792 76.346,336.157 79.046,337.570 80.591 C 342.888 86.403,350.131 96.699,351.722 100.708 C 354.436 107.548,348.739 115.681,341.172 115.769 C 336.141 115.828,334.130 114.263,327.074 104.800 C 320.020 95.340,312.166 86.638,305.651 81.064 C 303.753 79.441,300.600 76.651,298.645 74.864 C 291.037 67.913,271.362 55.845,259.122 50.622 C 214.460 31.565,163.896 32.766,120.400 53.916 C 95.036 66.250,67.976 88.823,64.623 100.445 C 63.609 103.958,63.859 161.176,64.896 163.072 C 66.373 165.772,68.097 165.370,72.501 161.299 C 91.558 143.681,113.316 141.451,131.487 155.253 C 135.765 158.502,138.258 161.145,140.270 164.563 C 149.926 180.963,150.385 183.991,150.381 231.200 C 150.378 269.337,150.258 270.580,146.225 274.497 C 141.092 279.482,128.721 279.275,123.974 274.125 C 120.358 270.202,120.632 273.309,120.359 233.200 C 120.095 194.371,120.162 195.458,117.522 187.053 C 110.672 165.247,78.025 164.996,67.067 186.665 C 64.129 192.472,64.264 190.528,64.019 230.800 L 63.800 267.000 62.905 269.371 C 60.342 276.164,56.878 278.160,48.043 277.931 C 39.588 277.712,35.715 274.433,34.424 266.400 C 33.842 262.781,33.843 106.009,34.425 102.400 C 34.971 99.013,36.446 96.124,40.276 90.938 C 65.258 57.117,99.309 33.173,138.513 21.857 C 161.419 15.246,181.766 13.029,205.200 14.591 M244.000 149.827 C 242.790 150.143,240.540 150.833,239.000 151.361 C 237.460 151.888,235.129 152.623,233.821 152.994 C 229.015 154.356,224.002 157.628,218.200 163.190 C 212.945 168.228,212.380 168.045,208.998 160.217 C 204.582 149.997,189.483 149.813,184.520 159.919 L 183.400 162.200 183.400 211.600 C 183.400 269.914,183.425 270.573,185.806 274.008 C 188.377 277.719,191.944 279.214,198.903 279.498 C 206.241 279.798,208.867 278.463,212.686 272.492 C 214.900 269.032,214.851 269.805,214.872 238.000 C 214.900 194.426,215.152 192.519,221.961 184.247 C 230.155 174.295,245.640 172.499,253.400 180.601 C 262.068 189.650,261.962 189.029,261.993 230.901 C 262.023 270.964,262.032 271.042,266.827 275.886 C 271.243 280.345,283.952 280.461,288.663 276.086 C 293.201 271.871,293.297 271.033,293.624 232.800 C 293.995 189.392,293.889 190.066,301.543 182.389 C 305.862 178.057,308.207 176.681,312.400 176.018 C 326.434 173.797,335.602 180.037,339.475 194.446 L 340.591 198.600 340.596 237.494 L 340.600 276.388 337.242 282.894 C 335.395 286.472,333.114 290.390,332.172 291.600 C 331.230 292.810,329.861 294.642,329.130 295.672 C 328.398 296.702,326.439 299.312,324.776 301.472 C 323.114 303.632,321.180 306.241,320.479 307.269 C 317.858 311.113,306.863 322.488,301.657 326.742 C 289.176 336.941,282.950 341.493,278.211 343.885 C 276.238 344.882,273.088 346.719,271.211 347.968 C 267.043 350.744,255.078 355.957,249.200 357.559 C 246.890 358.188,242.923 359.432,240.384 360.323 C 233.186 362.848,222.350 364.717,205.000 366.426 C 198.361 367.080,179.686 366.972,175.355 366.255 C 173.400 365.931,170.900 365.552,169.800 365.414 C 162.340 364.475,154.035 362.984,150.800 362.005 C 148.710 361.372,145.453 360.497,143.563 360.061 C 141.673 359.625,138.163 358.377,135.763 357.288 C 133.363 356.199,129.737 354.837,127.705 354.261 C 123.174 352.976,118.117 350.478,111.800 346.404 C 109.160 344.701,106.370 342.988,105.600 342.596 C 104.040 341.802,99.066 338.521,94.200 335.075 C 90.283 332.302,84.628 327.399,79.812 322.601 C 69.851 312.676,68.702 311.901,63.951 311.897 C 57.144 311.892,51.619 316.677,50.940 323.167 C 50.368 328.644,53.471 333.938,62.400 342.716 C 70.215 350.400,72.597 352.531,75.292 354.250 C 76.892 355.270,79.640 357.313,81.400 358.789 C 84.911 361.733,88.470 364.215,91.100 365.552 C 92.036 366.028,94.016 367.196,95.500 368.149 C 99.315 370.596,111.593 376.778,115.400 378.168 C 117.160 378.811,119.860 380.013,121.400 380.839 C 123.014 381.704,126.825 383.094,130.400 384.120 C 133.810 385.099,138.219 386.478,140.198 387.184 C 154.815 392.401,190.221 395.236,211.000 392.852 C 212.760 392.650,217.080 392.187,220.600 391.823 C 228.214 391.036,236.736 389.247,241.992 387.332 C 244.086 386.568,247.373 385.604,249.296 385.188 C 251.219 384.772,254.009 383.900,255.496 383.250 C 256.983 382.600,259.804 381.606,261.764 381.040 C 263.724 380.474,267.414 379.040,269.964 377.852 C 272.514 376.665,275.272 375.480,276.092 375.218 C 276.913 374.957,278.945 373.855,280.609 372.769 C 282.272 371.683,284.898 370.170,286.444 369.405 C 287.991 368.641,290.638 367.055,292.328 365.880 C 294.018 364.705,296.930 362.965,298.800 362.013 C 303.156 359.795,304.123 359.136,306.800 356.566 C 308.010 355.405,310.350 353.630,312.000 352.623 C 319.572 348.002,342.411 324.371,348.257 315.110 C 348.822 314.214,350.398 312.023,351.759 310.239 C 353.119 308.456,354.782 305.828,355.453 304.399 C 356.125 302.969,357.557 300.417,358.637 298.727 C 361.395 294.408,365.016 287.698,365.612 285.800 C 365.888 284.920,366.828 282.670,367.700 280.800 C 368.573 278.930,369.852 275.960,370.543 274.200 L 371.800 271.000 371.838 233.800 C 371.881 192.243,371.803 190.137,370.051 185.430 C 369.390 183.653,368.281 180.224,367.586 177.809 C 364.880 168.399,355.692 157.113,347.453 153.078 C 336.487 147.709,315.282 148.517,306.664 154.633 C 305.309 155.595,303.151 157.122,301.868 158.028 C 300.585 158.933,297.525 161.692,295.068 164.158 C 290.678 168.565,288.563 170.074,287.258 169.729 C 286.041 169.408,282.936 166.221,281.288 163.600 C 279.515 160.779,274.584 156.044,271.343 154.050 C 265.434 150.414,250.552 148.116,244.000 149.827 M338.694 152.008 C 346.684 153.658,355.471 159.639,360.037 166.536 C 364.864 173.827,367.742 181.154,369.489 190.600 C 370.492 196.021,370.772 266.730,369.805 270.501 C 367.616 279.047,358.682 296.728,349.945 309.803 C 340.536 323.886,324.738 340.982,312.800 350.001 C 310.930 351.414,308.307 353.493,306.970 354.621 C 301.949 358.860,282.385 370.475,275.000 373.602 C 272.800 374.534,269.920 375.840,268.600 376.505 C 265.064 378.287,254.024 382.323,249.200 383.598 C 246.890 384.208,243.071 385.258,240.713 385.931 C 234.078 387.824,225.928 389.501,220.062 390.181 C 217.126 390.522,214.581 390.888,214.407 390.996 C 212.771 392.007,191.454 392.610,179.600 391.981 C 151.692 390.499,117.020 379.918,96.061 366.489 C 94.378 365.410,91.412 363.553,89.470 362.363 C 87.529 361.174,84.829 359.307,83.470 358.216 C 82.112 357.124,79.110 354.802,76.800 353.055 C 66.853 345.531,54.918 333.425,52.947 328.859 C 50.066 322.187,55.329 314.315,63.087 313.692 C 67.187 313.363,68.570 314.123,74.600 320.012 C 83.532 328.737,94.960 338.174,101.800 342.473 C 151.673 373.817,210.898 377.372,266.003 352.328 C 285.174 343.616,310.273 323.963,321.594 308.800 C 322.990 306.930,325.071 304.230,326.220 302.800 C 333.602 293.604,341.419 279.244,342.006 273.800 C 342.510 269.117,342.500 206.242,341.994 201.038 C 340.381 184.454,332.542 174.783,319.897 173.780 C 310.838 173.060,304.742 175.589,298.877 182.499 C 292.085 190.501,291.311 196.532,291.762 238.000 C 292.067 266.042,291.806 269.293,288.947 273.089 C 283.725 280.022,269.769 279.621,265.852 272.425 C 263.698 268.468,263.629 267.194,263.611 231.000 C 263.593 194.666,263.652 195.692,261.170 188.986 C 255.025 172.388,235.012 168.477,222.187 181.369 C 213.469 190.132,212.991 193.024,213.123 236.170 C 213.221 267.874,213.183 268.533,211.047 272.091 C 206.327 279.953,192.474 280.328,187.361 272.733 C 185.248 269.594,185.266 270.049,185.128 214.400 L 185.000 162.600 186.240 160.400 C 191.357 151.317,205.273 152.517,208.169 162.291 C 210.111 168.845,210.173 168.987,211.330 169.536 C 213.054 170.354,214.415 169.564,217.928 165.706 C 228.584 154.005,245.496 148.726,261.200 152.199 C 269.608 154.059,276.811 159.188,281.965 166.987 C 286.588 173.982,288.126 174.045,294.078 167.489 C 301.400 159.424,308.533 154.610,316.177 152.576 C 323.214 150.703,331.373 150.497,338.694 152.008 " stroke="none" fill="#bccca5" fill-rule="evenodd"></path><path id="path4" d="M188.964 12.342 C 189.182 12.694,195.165 12.568,195.530 12.204 C 195.642 12.092,194.163 12.000,192.243 12.000 C 190.323 12.000,188.848 12.154,188.964 12.342 M180.307 12.690 C 181.026 12.779,182.106 12.777,182.707 12.686 C 183.308 12.595,182.720 12.522,181.400 12.524 C 180.080 12.526,179.588 12.601,180.307 12.690 M200.800 12.791 C 210.521 13.493,212.360 13.650,217.538 14.216 C 223.094 14.824,224.651 14.918,224.362 14.629 C 223.910 14.177,209.405 12.820,203.200 12.650 C 197.151 12.484,196.825 12.503,200.800 12.791 M167.200 13.820 C 159.699 14.774,152.290 16.024,152.558 16.291 C 152.700 16.433,167.176 14.504,174.000 13.434 C 179.586 12.557,175.151 12.809,167.200 13.820 M230.200 16.039 C 233.280 16.671,236.070 17.138,236.400 17.076 C 237.052 16.954,226.040 14.771,225.146 14.845 C 224.846 14.870,227.120 15.407,230.200 16.039 M239.800 18.055 C 245.866 20.035,250.667 21.311,251.281 21.106 C 251.763 20.946,240.069 17.579,239.200 17.629 C 238.870 17.648,239.140 17.839,239.800 18.055 M133.400 21.200 C 131.640 21.826,130.416 22.351,130.679 22.369 C 131.304 22.410,137.600 20.421,137.600 20.183 C 137.600 19.825,136.558 20.078,133.400 21.200 M120.200 26.049 C 118.660 26.704,116.091 27.797,114.491 28.478 C 110.940 29.989,110.901 30.339,114.427 29.040 C 115.842 28.519,117.810 27.802,118.800 27.447 C 120.634 26.789,124.127 24.811,123.400 24.842 C 123.180 24.851,121.740 25.394,120.200 26.049 M267.200 27.000 C 267.750 27.314,268.380 27.572,268.600 27.572 C 268.820 27.572,268.550 27.314,268.000 27.000 C 267.450 26.686,266.820 26.428,266.600 26.428 C 266.380 26.428,266.650 26.686,267.200 27.000 M269.200 27.815 C 269.200 28.246,281.158 33.775,281.453 33.480 C 281.535 33.398,279.487 32.326,276.901 31.097 C 271.627 28.592,269.200 27.557,269.200 27.815 M105.600 32.633 C 99.149 36.007,93.979 38.913,94.141 39.074 C 94.333 39.266,106.140 33.215,108.651 31.639 C 111.675 29.740,110.231 30.210,105.600 32.633 M289.340 37.903 C 289.494 38.152,291.617 39.491,294.058 40.878 C 296.499 42.265,299.240 44.039,300.148 44.821 C 301.057 45.602,303.060 47.008,304.600 47.945 C 307.011 49.413,307.206 49.479,306.000 48.419 C 302.814 45.620,288.542 36.611,289.340 37.903 M176.241 39.439 C 171.472 39.987,162.346 41.526,162.033 41.835 C 161.744 42.121,162.574 42.021,167.280 41.204 C 174.808 39.897,179.281 39.502,189.800 39.218 L 199.800 38.947 190.400 38.920 C 184.853 38.904,179.049 39.117,176.241 39.439 M202.905 39.487 C 203.514 39.579,204.414 39.577,204.905 39.482 C 205.397 39.387,204.900 39.311,203.800 39.314 C 202.700 39.317,202.297 39.395,202.905 39.487 M208.305 39.883 C 208.802 39.979,209.522 39.975,209.905 39.875 C 210.287 39.775,209.880 39.696,209.000 39.701 C 208.120 39.705,207.807 39.787,208.305 39.883 M220.800 41.455 C 221.350 41.567,224.500 42.184,227.800 42.827 C 232.683 43.778,238.912 45.434,245.000 47.402 C 247.496 48.208,244.054 46.699,240.600 45.472 C 236.066 43.862,231.237 42.607,228.000 42.199 C 226.790 42.047,225.440 41.858,225.000 41.779 C 223.658 41.540,219.730 41.237,220.800 41.455 M155.200 42.982 C 151.829 43.747,149.600 44.408,149.600 44.642 C 149.600 44.759,149.942 44.745,150.360 44.613 C 150.778 44.480,152.983 43.941,155.260 43.414 C 157.537 42.887,158.950 42.462,158.400 42.469 C 157.850 42.476,156.410 42.707,155.200 42.982 M83.452 45.792 C 81.720 46.972,80.100 48.155,79.852 48.422 C 79.603 48.688,81.065 47.798,83.100 46.443 C 85.135 45.088,86.800 43.894,86.800 43.790 C 86.800 43.508,86.845 43.481,83.452 45.792 M138.200 47.776 C 134.322 49.099,125.850 52.798,123.200 54.325 C 120.302 55.994,120.924 55.950,124.310 54.246 C 127.949 52.415,131.225 51.040,137.400 48.754 C 142.687 46.796,143.312 46.031,138.200 47.776 M247.200 48.100 C 247.200 48.191,250.014 49.321,253.452 50.613 C 256.891 51.905,262.336 54.266,265.552 55.860 C 268.769 57.454,271.040 58.479,270.600 58.139 C 269.290 57.126,254.661 50.105,252.128 49.273 C 249.456 48.396,247.200 47.859,247.200 48.100 M307.600 49.733 C 307.600 49.843,308.320 50.503,309.200 51.200 C 310.080 51.897,310.800 52.377,310.800 52.267 C 310.800 52.157,310.080 51.497,309.200 50.800 C 308.320 50.103,307.600 49.623,307.600 49.733 M311.200 52.504 C 311.200 52.614,312.505 53.692,314.100 54.901 C 315.695 56.110,320.562 60.564,324.916 64.800 C 329.269 69.036,332.921 72.412,333.031 72.303 C 333.257 72.076,318.742 58.153,315.999 55.966 C 313.148 53.694,311.200 52.288,311.200 52.504 M63.475 61.924 C 57.483 67.506,52.469 72.724,47.611 78.429 C 46.407 79.843,45.863 80.640,46.403 80.200 C 47.478 79.323,48.676 78.037,53.533 72.547 C 55.311 70.538,58.780 67.028,61.241 64.747 C 68.117 58.377,70.134 56.401,69.950 56.217 C 69.857 56.124,66.943 58.692,63.475 61.924 M278.033 62.562 C 278.125 62.652,281.350 64.840,285.200 67.424 C 292.347 72.223,294.848 74.094,297.962 76.972 L 299.724 78.600 298.656 77.154 C 297.388 75.438,294.400 73.058,289.200 69.623 C 287.110 68.242,284.500 66.430,283.400 65.596 C 280.963 63.749,276.884 61.443,278.033 62.562 M96.659 69.753 C 91.539 73.172,85.197 78.465,79.349 84.200 C 77.554 85.960,74.761 88.664,73.143 90.209 C 70.063 93.149,68.222 95.876,66.474 100.088 L 65.431 102.600 65.334 129.000 C 65.281 143.520,65.388 156.120,65.573 157.000 C 65.767 157.927,65.927 147.039,65.954 131.120 C 66.004 101.127,66.011 101.037,68.327 97.243 C 72.280 90.771,85.331 78.433,96.800 70.326 C 101.680 66.877,102.302 66.400,101.920 66.400 C 101.788 66.400,99.420 67.909,96.659 69.753 M309.595 87.718 C 313.223 91.393,316.269 94.400,316.365 94.400 C 316.782 94.400,306.010 83.466,303.969 81.818 C 303.436 81.388,305.968 84.043,309.595 87.718 M344.352 86.200 C 345.030 87.300,346.226 88.920,347.010 89.800 C 348.117 91.041,347.974 90.728,346.372 88.400 C 343.873 84.769,342.649 83.435,344.352 86.200 M35.991 93.413 C 34.740 95.231,33.016 98.759,33.267 98.989 C 33.340 99.056,34.323 97.421,35.451 95.356 C 37.723 91.197,37.863 90.693,35.991 93.413 M321.614 101.000 C 324.504 104.746,325.180 105.467,324.213 103.772 C 323.827 103.096,322.529 101.476,321.328 100.172 L 319.145 97.800 321.614 101.000 M354.032 106.611 C 353.924 109.379,350.436 114.333,347.542 115.830 C 344.267 117.524,337.967 117.219,333.800 115.165 L 332.200 114.376 333.280 115.352 C 337.803 119.437,346.663 118.460,351.131 113.384 C 352.737 111.558,354.649 107.262,354.272 106.322 C 354.152 106.022,354.050 106.146,354.032 106.611 M32.196 193.000 C 32.196 233.260,32.243 249.671,32.300 229.468 C 32.357 209.266,32.357 176.326,32.300 156.268 C 32.243 136.211,32.196 152.740,32.196 193.000 M108.707 144.690 C 109.426 144.779,110.506 144.777,111.107 144.686 C 111.708 144.595,111.120 144.522,109.800 144.524 C 108.480 144.526,107.988 144.601,108.707 144.690 M116.086 145.792 C 118.224 146.330,120.715 147.148,121.622 147.611 C 124.418 149.038,129.200 151.164,129.200 150.981 C 129.200 149.985,117.733 145.454,114.172 145.043 C 112.887 144.894,113.553 145.155,116.086 145.792 M85.000 149.716 C 81.198 151.727,77.604 154.155,75.400 156.202 L 73.800 157.688 75.600 156.300 C 78.062 154.401,82.435 151.627,85.800 149.829 C 88.776 148.238,89.149 147.993,88.567 148.012 C 88.365 148.018,86.760 148.785,85.000 149.716 M323.926 149.206 C 320.386 149.544,315.484 150.418,315.733 150.666 C 315.825 150.759,318.038 150.555,320.651 150.214 C 323.263 149.872,327.020 149.439,329.000 149.250 L 332.600 148.908 329.800 148.910 C 328.260 148.911,325.617 149.044,323.926 149.206 M260.383 150.388 C 263.344 151.037,265.831 151.502,265.910 151.423 C 266.124 151.210,259.311 149.686,257.000 149.431 C 255.900 149.309,257.422 149.740,260.383 150.388 M334.100 149.476 C 334.485 149.576,335.115 149.576,335.500 149.476 C 335.885 149.375,335.570 149.293,334.800 149.293 C 334.030 149.293,333.715 149.375,334.100 149.476 M241.190 150.015 C 239.382 150.445,232.800 152.822,232.800 153.045 C 232.800 153.306,234.570 152.814,239.600 151.157 C 243.828 149.764,244.608 149.203,241.190 150.015 M339.968 150.604 C 342.040 151.151,343.800 151.533,343.879 151.454 C 344.080 151.254,339.726 150.089,337.800 149.828 C 336.920 149.709,337.896 150.058,339.968 150.604 M193.200 152.545 C 192.210 152.815,191.040 153.266,190.600 153.548 L 189.800 154.060 190.600 153.787 C 193.151 152.914,194.537 152.690,197.539 152.666 C 199.376 152.651,200.546 152.507,200.139 152.347 C 198.988 151.894,195.189 152.002,193.200 152.545 M136.192 157.109 C 138.388 159.359,140.248 161.200,140.326 161.200 C 140.632 161.200,137.982 158.121,136.534 156.794 C 132.655 153.240,132.529 153.356,136.192 157.109 M226.661 155.812 C 222.775 158.156,211.400 168.005,214.490 166.352 C 214.981 166.089,216.737 164.591,218.392 163.024 C 221.786 159.808,225.577 156.824,228.099 155.382 C 229.035 154.847,229.620 154.408,229.400 154.406 C 229.180 154.404,227.948 155.037,226.661 155.812 M186.415 156.630 C 183.123 160.202,183.004 160.758,182.969 172.800 L 182.938 183.400 183.169 172.800 C 183.431 160.795,183.578 160.142,186.815 156.630 C 187.743 155.623,188.412 154.800,188.302 154.800 C 188.192 154.800,187.343 155.623,186.415 156.630 M207.341 157.113 C 208.094 158.231,209.195 160.417,209.789 161.971 C 210.383 163.524,211.168 165.120,211.534 165.517 C 211.900 165.913,212.075 166.043,211.922 165.805 C 211.770 165.567,211.161 164.028,210.570 162.386 C 209.513 159.449,207.893 156.673,206.620 155.617 C 206.264 155.322,206.589 155.995,207.341 157.113 M352.832 156.853 C 353.840 157.814,355.575 159.358,356.688 160.284 C 357.800 161.210,359.715 163.400,360.942 165.152 C 362.169 166.903,363.389 168.470,363.653 168.633 C 366.798 170.576,356.822 159.111,353.200 156.619 L 351.000 155.105 352.832 156.853 M301.563 157.666 C 298.572 159.752,290.597 167.530,291.018 167.951 C 291.143 168.076,293.080 166.284,295.322 163.969 C 297.565 161.654,300.514 159.005,301.875 158.082 C 304.046 156.610,305.190 155.600,304.686 155.600 C 304.598 155.600,303.192 156.530,301.563 157.666 M277.077 158.659 C 278.659 160.166,280.627 162.478,281.450 163.795 C 283.111 166.453,284.285 167.849,284.597 167.536 C 285.271 166.862,279.191 159.651,275.826 157.134 C 274.914 156.451,275.462 157.120,277.077 158.659 M142.642 165.300 C 143.680 167.338,146.473 172.000,146.656 172.000 C 146.883 172.000,145.799 169.913,143.902 166.700 C 142.238 163.880,141.501 163.062,142.642 165.300 M96.606 172.578 C 100.332 173.157,102.249 173.733,104.940 175.082 C 106.008 175.617,106.781 175.894,106.660 175.697 C 105.700 174.144,98.889 171.961,95.245 172.040 C 93.678 172.073,93.882 172.154,96.606 172.578 M366.948 175.400 C 367.992 179.568,370.347 186.800,370.661 186.800 C 371.076 186.800,367.892 176.194,367.178 175.200 C 366.824 174.707,366.783 174.743,366.948 175.400 M306.162 178.331 C 303.221 180.238,297.881 185.872,296.578 188.443 C 295.009 191.540,295.476 191.679,297.107 188.600 C 298.904 185.209,304.020 179.866,307.200 178.058 C 308.410 177.370,309.203 176.806,308.962 176.804 C 308.721 176.802,307.461 177.489,306.162 178.331 M109.460 178.000 C 109.691 178.330,110.745 179.677,111.803 180.993 C 113.836 183.522,115.287 186.403,116.045 189.412 C 116.768 192.285,116.896 191.210,116.218 187.957 C 115.525 184.634,113.997 182.099,110.939 179.200 C 109.895 178.210,109.229 177.670,109.460 178.000 M250.207 178.653 C 251.083 179.232,252.655 180.530,253.700 181.538 C 254.745 182.546,255.600 183.238,255.600 183.076 C 255.600 182.431,252.144 179.086,250.734 178.366 C 248.599 177.277,248.339 177.418,250.207 178.653 M148.997 179.400 C 149.312 181.787,150.950 188.549,151.103 188.092 C 151.276 187.573,149.716 179.936,149.192 178.732 C 148.856 177.963,148.822 178.079,148.997 179.400 M226.536 179.546 C 225.471 180.397,224.150 181.597,223.600 182.213 C 223.050 182.830,223.784 182.359,225.232 181.167 C 226.679 179.975,228.209 178.786,228.632 178.524 C 229.054 178.261,229.191 178.036,228.936 178.024 C 228.681 178.011,227.601 178.696,226.536 179.546 M331.952 181.152 C 336.348 185.548,339.118 192.775,340.013 202.182 C 340.562 207.945,340.980 208.200,340.652 202.571 C 340.075 192.654,335.286 181.815,330.304 179.149 C 329.884 178.924,330.625 179.825,331.952 181.152 M72.264 181.634 C 65.553 189.050,65.492 189.490,65.208 232.200 C 64.948 271.363,65.069 269.528,62.456 273.648 C 60.261 277.108,56.679 279.052,51.479 279.605 L 48.200 279.953 51.600 279.808 C 58.471 279.514,62.687 276.495,65.059 270.172 C 65.752 268.324,65.812 265.918,66.019 231.800 C 66.238 195.424,66.239 195.398,67.145 192.411 C 68.348 188.446,70.761 183.886,73.024 181.300 C 74.035 180.145,74.773 179.200,74.665 179.200 C 74.556 179.200,73.476 180.295,72.264 181.634 M258.177 187.252 C 260.279 191.026,261.283 195.662,261.584 203.000 L 261.864 209.800 261.932 203.564 C 262.017 195.801,260.152 187.952,257.749 185.958 C 257.449 185.709,257.641 186.291,258.177 187.252 M151.775 203.800 C 151.775 209.740,151.831 212.226,151.899 209.324 C 151.967 206.422,151.967 201.562,151.899 198.524 C 151.831 195.486,151.775 197.860,151.775 203.800 M371.701 194.600 C 371.705 195.480,371.787 195.793,371.883 195.295 C 371.979 194.798,371.975 194.078,371.875 193.695 C 371.775 193.313,371.696 193.720,371.701 194.600 M371.904 230.914 C 371.961 249.881,372.063 266.300,372.130 267.400 C 372.197 268.500,372.273 253.290,372.298 233.600 C 372.323 213.910,372.221 197.491,372.072 197.114 C 371.922 196.737,371.847 211.947,371.904 230.914 M261.690 238.065 C 261.580 271.121,261.777 272.669,266.589 276.612 C 270.059 279.456,279.594 281.014,283.477 279.371 C 284.060 279.125,282.704 279.047,279.441 279.139 C 269.731 279.415,265.594 277.011,263.106 269.650 C 262.220 267.032,262.207 266.660,261.995 239.000 L 261.779 211.000 261.690 238.065 M340.383 243.000 C 340.118 281.238,341.174 276.096,329.862 294.200 C 328.300 296.700,328.470 296.517,331.838 292.083 C 334.941 287.999,340.263 277.462,340.579 274.779 C 340.720 273.580,340.783 258.920,340.718 242.200 L 340.600 211.800 340.383 243.000 M214.976 249.600 C 214.976 255.870,215.032 258.435,215.099 255.300 C 215.167 252.165,215.167 247.035,215.099 243.900 C 215.032 240.765,214.976 243.330,214.976 249.600 M293.544 257.400 C 293.207 268.422,292.005 272.903,288.465 276.319 L 287.000 277.732 288.400 276.732 C 292.737 273.634,294.166 268.003,293.915 255.000 L 293.800 249.000 293.544 257.400 M183.276 265.200 C 183.377 267.941,183.651 270.123,183.953 270.600 C 184.391 271.290,184.428 271.298,184.227 270.660 C 184.099 270.252,183.882 267.912,183.745 265.460 C 183.415 259.549,183.059 259.352,183.276 265.200 M151.600 264.442 C 151.600 278.321,133.681 285.041,122.695 275.283 C 121.208 273.962,121.126 273.930,121.942 274.991 C 127.125 281.727,142.565 281.933,148.366 275.344 C 150.726 272.662,153.496 262.400,151.859 262.400 C 151.717 262.400,151.600 263.319,151.600 264.442 M32.576 267.947 C 32.798 270.362,34.824 274.285,36.839 276.200 L 38.522 277.800 36.659 275.147 C 34.786 272.479,33.343 269.627,32.741 267.400 C 32.472 266.407,32.443 266.501,32.576 267.947 M212.892 272.164 C 212.191 273.336,210.669 275.250,209.509 276.418 L 207.400 278.540 209.086 277.426 C 210.969 276.182,212.255 274.644,213.570 272.061 C 214.834 269.579,214.399 269.645,212.892 272.164 M187.967 276.545 C 188.500 277.201,190.000 278.193,190.000 277.889 C 190.000 277.813,189.415 277.322,188.700 276.799 C 187.896 276.210,187.616 276.113,187.967 276.545 M367.716 280.693 C 366.194 284.022,365.273 286.436,365.693 286.000 C 366.057 285.622,369.598 277.465,369.459 277.326 C 369.383 277.249,368.598 278.765,367.716 280.693 M190.604 278.363 C 191.451 279.209,195.848 279.999,199.384 279.940 L 203.000 279.881 198.400 279.574 C 195.870 279.406,192.992 278.976,192.004 278.618 C 191.016 278.260,190.386 278.146,190.604 278.363 M361.800 293.200 C 361.459 293.860,361.269 294.400,361.379 294.400 C 361.489 294.400,361.859 293.860,362.200 293.200 C 362.541 292.540,362.731 292.000,362.621 292.000 C 362.511 292.000,362.141 292.540,361.800 293.200 M358.298 299.331 C 356.807 301.577,354.795 305.356,354.808 305.887 C 354.817 306.276,356.577 303.472,358.566 299.900 C 360.369 296.661,360.246 296.398,358.298 299.331 M350.491 311.900 C 349.845 312.725,348.846 314.151,348.272 315.069 C 344.377 321.301,330.354 336.760,320.397 345.800 C 317.052 348.837,316.625 349.710,319.800 347.021 C 329.523 338.786,341.889 325.077,349.313 314.300 C 352.057 310.318,352.601 309.208,350.491 311.900 M61.300 311.876 C 61.685 311.976,62.315 311.976,62.700 311.876 C 63.085 311.775,62.770 311.693,62.000 311.693 C 61.230 311.693,60.915 311.775,61.300 311.876 M54.955 314.831 C 49.169 319.413,48.468 327.257,53.285 333.515 C 55.974 337.009,62.814 343.981,66.262 346.744 C 68.173 348.274,68.547 348.503,67.218 347.329 C 58.902 339.978,52.864 332.651,51.546 328.314 C 49.997 323.214,51.192 318.669,54.943 315.387 C 57.275 313.348,57.282 312.988,54.955 314.831 M73.400 316.400 C 74.483 317.500,75.460 318.400,75.570 318.400 C 75.680 318.400,74.883 317.500,73.800 316.400 C 72.717 315.300,71.740 314.400,71.630 314.400 C 71.520 314.400,72.317 315.300,73.400 316.400 M308.594 320.100 L 303.400 325.400 308.700 320.206 C 313.623 315.381,314.181 314.800,313.894 314.800 C 313.836 314.800,311.451 317.185,308.594 320.100 M77.124 319.879 C 77.844 320.802,79.731 322.730,81.317 324.162 C 82.903 325.595,85.598 328.027,87.306 329.567 C 89.968 331.967,98.559 338.382,100.400 339.345 C 101.303 339.818,100.538 339.208,93.371 333.734 C 89.867 331.058,84.483 326.468,81.407 323.534 C 78.331 320.600,76.403 318.956,77.124 319.879 M288.200 337.035 L 287.000 338.066 288.300 337.206 C 289.015 336.733,289.600 336.268,289.600 336.173 C 289.600 335.873,289.431 335.978,288.200 337.035 M282.147 340.934 C 275.874 344.971,275.898 344.951,279.000 343.448 C 281.439 342.266,286.800 338.635,286.800 338.166 C 286.800 337.929,287.014 337.802,282.147 340.934 M268.548 348.586 C 261.618 352.123,256.313 354.474,250.800 356.452 C 246.035 358.161,245.922 358.345,250.333 357.213 C 256.448 355.643,274.400 347.089,274.400 345.746 C 274.400 345.666,274.355 345.623,274.300 345.650 C 274.245 345.678,271.657 346.999,268.548 348.586 M111.600 346.130 C 111.600 347.296,127.462 355.071,128.245 354.289 C 128.351 354.183,127.934 353.971,127.319 353.819 C 126.147 353.528,118.382 349.714,114.100 347.326 C 112.725 346.559,111.600 346.021,111.600 346.130 M311.200 353.147 C 309.550 354.218,307.390 355.960,306.400 357.017 L 304.600 358.941 306.400 357.575 C 307.390 356.824,309.100 355.488,310.200 354.605 C 311.300 353.722,312.740 352.601,313.400 352.113 C 315.473 350.579,314.323 351.120,311.200 353.147 M75.600 354.516 C 75.600 354.601,77.085 355.792,78.900 357.162 C 80.715 358.532,81.480 358.993,80.600 358.187 C 79.001 356.721,75.600 354.224,75.600 354.516 M137.561 358.024 C 140.046 359.221,146.303 361.030,146.674 360.659 C 146.775 360.559,146.259 360.345,145.529 360.185 C 144.798 360.025,142.490 359.310,140.400 358.596 C 134.828 356.692,134.770 356.680,137.561 358.024 M241.179 359.610 C 239.298 360.233,234.168 361.554,229.779 362.546 C 220.703 364.598,220.685 365.026,229.752 363.169 C 235.054 362.083,243.100 359.728,244.800 358.764 C 245.836 358.177,244.718 358.438,241.179 359.610 M297.750 362.554 C 295.963 363.508,293.353 365.105,291.950 366.104 C 290.548 367.102,287.780 368.748,285.800 369.762 C 283.820 370.775,281.750 371.980,281.200 372.440 C 279.592 373.786,289.344 368.575,294.800 365.175 C 302.282 360.511,303.336 359.574,297.750 362.554 M152.299 362.405 C 153.454 362.815,155.254 363.251,156.299 363.373 C 157.645 363.530,157.150 363.312,154.600 362.625 C 150.300 361.466,149.423 361.382,152.299 362.405 M178.691 366.689 C 179.401 366.777,180.661 366.779,181.491 366.692 C 182.321 366.605,181.740 366.533,180.200 366.531 C 178.660 366.529,177.981 366.600,178.691 366.689 M270.800 377.400 C 269.810 377.930,269.180 378.364,269.400 378.364 C 269.620 378.364,270.610 377.930,271.600 377.400 C 272.590 376.870,273.220 376.436,273.000 376.436 C 272.780 376.436,271.790 376.870,270.800 377.400 M112.868 377.402 C 113.288 377.821,120.513 380.820,120.687 380.647 C 120.933 380.400,119.967 379.919,116.270 378.447 C 113.200 377.224,112.465 376.998,112.868 377.402 M260.000 381.590 C 256.182 382.861,251.555 384.776,252.266 384.791 C 252.769 384.801,263.653 380.881,263.952 380.581 C 264.303 380.230,263.366 380.469,260.000 381.590 M133.789 385.433 C 135.323 385.969,136.763 386.341,136.989 386.260 C 137.397 386.114,132.040 384.373,131.357 384.430 C 131.161 384.446,132.255 384.898,133.789 385.433 M245.062 386.247 C 240.605 387.682,241.466 387.802,246.221 386.410 C 248.409 385.769,249.750 385.243,249.200 385.241 C 248.650 385.239,246.788 385.692,245.062 386.247 M160.100 391.876 C 160.485 391.976,161.115 391.976,161.500 391.876 C 161.885 391.775,161.570 391.693,160.800 391.693 C 160.030 391.693,159.715 391.775,160.100 391.876 M221.100 391.882 C 221.595 391.978,222.405 391.978,222.900 391.882 C 223.395 391.787,222.990 391.709,222.000 391.709 C 221.010 391.709,220.605 391.787,221.100 391.882 M162.900 392.276 C 163.285 392.376,163.915 392.376,164.300 392.276 C 164.685 392.175,164.370 392.093,163.600 392.093 C 162.830 392.093,162.515 392.175,162.900 392.276 M214.727 392.410 C 208.052 393.536,179.642 393.914,169.600 393.011 L 167.800 392.849 169.600 393.181 C 174.304 394.050,192.926 394.522,201.800 393.997 C 209.947 393.514,222.490 392.072,218.400 392.087 C 217.410 392.091,215.757 392.236,214.727 392.410 " stroke="none" fill="#bdd09a" fill-rule="evenodd"></path></g></svg>